<svg xmlns="http://www.w3.org/2000/svg" viewBox="0 0 1005.07 715.54"><defs><style>.cls-1{fill:#c0ddff;}.cls-10,.cls-2,.cls-3,.cls-9{fill:none;stroke-miterlimit:10;}.cls-2,.cls-3{stroke:#c0ddff;stroke-width:9px;}.cls-10,.cls-3{stroke-linecap:round;}.cls-4{fill:#adadad;}.cls-5{fill:#a2c9ff;}.cls-6{fill:#fff;}.cls-7{fill:#fdd392;}.cls-8{fill:#86e1ae;}.cls-10,.cls-9{stroke:#a2c9ff;stroke-width:7px;}</style></defs><title>Asset 4</title><g id="Layer_2" data-name="Layer 2"><g id="Layer_4" data-name="Layer 4"><rect class="cls-1" x="46.84" y="57.54" width="335.33" height="115.33" rx="57.67" ry="57.67" transform="translate(-24.76 70.05) rotate(-17.55)"/><rect class="cls-1" x="-9.51" y="196.37" width="524.34" height="115.33" rx="57.67" ry="57.67" transform="translate(-64.85 88.03) rotate(-17.55)"/><path class="cls-1" d="M600.06,447.17,231,563.89c-28.73,9.09-59.81-8.16-69.42-38.52h0C152,495,167.51,463,196.25,453.93l3.8-1.2L565.28,337.2c28.73-9.09,59.81,8.16,69.42,38.53h0C644.3,406.09,628.79,438.08,600.06,447.17Z"/><rect class="cls-1" x="328.13" y="480.28" width="435.81" height="115.33" rx="57.67" ry="57.67" transform="translate(-136.81 189.72) rotate(-17.55)"/><rect class="cls-1" x="796.85" y="370.7" width="210.42" height="115.33" rx="57.67" ry="57.67" transform="translate(-87.19 291.99) rotate(-17.55)"/><rect class="cls-1" x="520.58" y="273.71" width="344.93" height="115.33" rx="57.67" ry="57.67" transform="matrix(0.95, -0.3, 0.3, 0.95, -67.67, 224.44)"/><path class="cls-1" d="M171.47,340.2s40.19-8.8,55.52,34.87,0,69.08-15.05,73.9l1.55,60.93h44L343,456.4S448.49,425,450,424.69s38.83-83.25,38.83-83.25L416,271.4l-56-6-251.5,29.5"/><path class="cls-1" d="M678.11,435.69s-15.56,2.59-19.56-8.85-.83-23.46,7.52-26.45-5.33-8.42-5.33-8.42-17.56,6.43-18.37,8.62-7.5,15.5-7.5,15.5l-1,16.44S540,447.9,540,449.9s77,45,78.5,44.5S724,456.9,724,456.9"/><rect class="cls-1" x="471.58" width="316" height="316" rx="40.5" ry="40.5"/><circle class="cls-2" cx="821.74" cy="77.4" r="16.5"/><line class="cls-3" x1="406.49" y1="34.82" x2="435.41" y2="7.4"/><line class="cls-3" x1="430.74" y1="34.49" x2="408.41" y2="7.82"/><line class="cls-3" x1="784.94" y1="533.06" x2="809.19" y2="510.06"/><line class="cls-3" x1="805.27" y1="532.78" x2="786.54" y2="510.41"/><line class="cls-1" x1="258.67" y1="157.25" x2="282.92" y2="134.26"/><line class="cls-1" x1="279.01" y1="156.97" x2="260.28" y2="134.61"/><circle class="cls-3" cx="712.49" cy="605.15" r="15.25"/><rect class="cls-1" x="354.32" y="381.74" width="297.17" height="164.67"/><path class="cls-1" d="M576.15,138.25v.49a34.19,34.19,0,0,0-10.72-2.25c-5.59-.15-15.95-.09-15.95-.09"/><line class="cls-1" x1="533.99" y1="135.34" x2="533.99" y2="136.49"/><path class="cls-4" d="M534,136.49V71.74a5.16,5.16,0,0,0-5.17-5.17h0a5.16,5.16,0,0,0-5.16,5.17V136.4Z"/><path class="cls-4" d="M549.48,136.4V79.89a13.34,13.34,0,0,1,13.34-13.34h0a13.33,13.33,0,0,1,13.33,13.34v58.85a31.56,31.56,0,0,0-11.87-2.27Z"/><path class="cls-4" d="M586.32,144.36v-64a13.76,13.76,0,0,1,13.75-13.75h0a13.75,13.75,0,0,1,13.75,13.75V221.15a13.74,13.74,0,0,1-13.75,13.75h0a14.18,14.18,0,0,1-3.08-.34V168.09s-.06-12.62-9.31-21.75c0,0-1-1-1.36-1.24Z"/><rect class="cls-4" x="628.32" y="66.55" width="11.17" height="168.35" rx="5.58" ry="5.58"/><rect class="cls-4" x="654.16" y="66.57" width="18.67" height="168.33" rx="9.33" ry="9.33"/><rect class="cls-4" x="687.82" y="66.55" width="19.33" height="168.35" rx="9.67" ry="9.67"/><rect class="cls-4" x="721.87" y="66.55" width="18.87" height="168.35" rx="9.44" ry="9.44"/><rect class="cls-5" x="380.66" y="136.49" width="216.33" height="409.92" rx="32.83" ry="32.83"/><rect class="cls-6" x="386.32" y="177.4" width="204.67" height="330.33" rx="10" ry="10"/><path class="cls-7" d="M557.4,546.62c-.62.7-1.26,1.37-1.88,2.06l-.79.88-1.13,1.25-1.43,1.6-1.71,1.9-2,2.17-2.15,2.41L544,561.48l-2.47,2.75L539,567.1l-2.65,3-2.69,3-2.7,3-2.68,3L525.64,582l-2.52,2.81-2.4,2.67-2.25,2.5-2.05,2.29-1.82,2L513,596l-1.28,1.42-1,1.07-.59.66-.21.23s-15.5,14.25-43.75,13.5-31,11-31,11c-62.75,78.5-88.58,79.5-134.25,90.5s-204.5-60.75-119-76.75S325,546.9,325,546.9v-92l5.83-11.5,61.8-77.87h14s68.25,51,68.37,50.5c.08-.32,1,5.47,1.72,9.64a9.4,9.4,0,0,1-1.93,7.35h0a9.39,9.39,0,0,1-7.27,3.55l-6.51.06a9.44,9.44,0,0,1-5.09-1.45l-31.79-20-10.25,1.13-19.5,24.5L385,452.9l-4.25,5.59.08,58.16s1.25,14.42,11.34,21.75,12.5,7.17,18.83,8S557.4,546.62,557.4,546.62Z"/><rect class="cls-7" x="576.16" y="464.4" width="62.5" height="29" rx="14.5" ry="14.5"/><rect class="cls-7" x="566.25" y="418.07" width="82.06" height="34" rx="17" ry="17" transform="translate(-27.24 40.78) rotate(-3.76)"/><path class="cls-7" d="M597,408.48l-16,.41a17,17,0,0,1-17.43-16.56h0a17,17,0,0,1,16.55-17.43l16.93-.43"/><path class="cls-7" d="M597,374.47l37.07-1a17,17,0,0,1,17.43,16.56h0a17,17,0,0,1-16.56,17.43l-37.94,1"/><path class="cls-7" d="M597,369.67a16.06,16.06,0,0,0,5.36-2.17l57.5-36.3a16.18,16.18,0,0,0,5-22.31h0a16.17,16.17,0,0,0-22.3-5L597,332.65"/><rect class="cls-6" x="452.49" y="520.4" width="79.5" height="9.75" rx="4.87" ry="4.87"/><path class="cls-8" d="M729.48,376.2l22.81-.58-32.62-53.29-29.83,54.89,21.15-.54s-.5,42.72-33.87,61.35c0,0-11,7.54-2,14.37s24.16-5.75,30-13.58S728.31,417,729.48,376.2Z"/><circle class="cls-9" cx="183.49" cy="241.9" r="14"/><line class="cls-10" x1="260.67" y1="142.05" x2="277.63" y2="125.97"/><line class="cls-10" x1="274.89" y1="141.85" x2="261.79" y2="126.21"/></g></g></svg>